<?xml version="1.0" encoding="utf-8"?>
<!-- Generator: Adobe Illustrator 27.1.0, SVG Export Plug-In . SVG Version: 6.00 Build 0)  -->
<svg version="1.1" id="Calque_2_00000125569577512978290900000005227746795014243459_"
	 xmlns="http://www.w3.org/2000/svg" xmlns:xlink="http://www.w3.org/1999/xlink" x="0px" y="0px" viewBox="0 0 150 150"
	 style="enable-background:new 0 0 150 150;" xml:space="preserve">
<style type="text/css">
	.st0{fill:#212121;}
	.st1{fill:#CECECE;}
	.st2{fill:#FFFFFF;}
</style>
<circle class="st0" cx="75" cy="75" r="74.7"/>
<g id="Calque_7">
	<g>
		<g id="logo">
			<path class="st1" d="M107,111.8h-8.1c-0.4,0-0.7-0.2-0.9-0.6L74.3,60.8c-0.4-0.8-1.5-0.8-1.8,0L62.3,85.2
				c-0.2,0.4-0.5,0.6-0.9,0.6H54c-0.7,0-1.2-0.7-0.9-1.4l19.4-45.5c0.3-0.8,1.5-0.8,1.8,0l33.7,71.6
				C108.2,111,107.8,111.8,107,111.8L107,111.8z"/>
		</g>
		<path class="st2" d="M56.5,100.2l-4.9,11c-0.2,0.4-0.5,0.6-0.9,0.6H43c-0.7,0-1.2-0.8-0.9-1.4l5.1-11c0.2-0.3,0.5-0.6,0.9-0.6h7.4
			C56.3,98.8,56.8,99.5,56.5,100.2L56.5,100.2z"/>
	</g>
</g>
</svg>
